<svg width="17" height="18" viewBox="0 0 17 18" fill="none" xmlns="http://www.w3.org/2000/svg">
<path d="M16.1421 1.92896C16.1421 1.37667 15.6944 0.928955 15.1421 0.928955L6.14214 0.928955C5.58985 0.928955 5.14214 1.37667 5.14214 1.92896C5.14214 2.48124 5.58985 2.92896 6.14214 2.92896H14.1421V10.929C14.1421 11.4812 14.5899 11.929 15.1421 11.929C15.6944 11.929 16.1421 11.4812 16.1421 10.929V1.92896ZM0.292893 15.364C-0.0976315 15.7545 -0.0976315 16.3877 0.292893 16.7782C0.683417 17.1687 1.31658 17.1687 1.70711 16.7782L0.292893 15.364ZM14.435 1.22185L0.292893 15.364L1.70711 16.7782L15.8492 2.63606L14.435 1.22185Z" fill="#181A1B"/>
</svg>
